<?xml version="1.0" encoding="UTF-8" standalone="no"?>
<svg
   width="100%"
   height="100%"
   viewBox="0 0 512 512"
   version="1.1"
   id="SVGRoot"
   xmlns="http://www.w3.org/2000/svg"
   xmlns:svg="http://www.w3.org/2000/svg">
    <path
       d="m 167.9981,0 h 64.54458 v 240.14138 c 0,30.55367 -6.90317,55.43689 -20.70951,74.64967 -7.93862,11.07404 -18.06327,19.8799 -30.3739,26.41759 -12.19559,6.53766 -24.73635,9.80652 -37.62225,9.80652 -25.65676,0 -47.28667,-10.00667 -64.889737,-30.01999 -17.60307,-20.01331 -26.404605,-44.56297 -26.404605,-73.649 0,-28.15206 8.744006,-52.50159 26.232019,-73.0486 17.488013,-20.547 38.197503,-30.8205 62.128473,-30.8205 3.79675,0 9.54938,0.40028 17.2579,1.20081 v 82.45484 c -5.29241,-4.80319 -10.58485,-7.20479 -15.87727,-7.20479 -6.67305,0 -12.42568,2.86858 -17.2579,8.60573 -4.71716,5.60372 -7.07574,12.40825 -7.07574,20.41357 0,7.73849 2.47363,14.4096 7.42089,20.01333 4.94728,5.4703 10.87249,8.20546 17.77565,8.20546 16.56759,0 24.8514,-13.2755 24.8514,-39.82651 z"
	   fill="#02C074"
	   stroke-width="0"
	   stroke="#02C074" />
    <path
       d="M 355.34124,512 H 290.79666 V 270.63098 c 0,-30.55366 6.90316,-55.43687 20.70948,-74.64966 7.93865,-11.07405 18.00576,-19.87989 30.20135,-26.41757 12.31064,-6.53768 24.90891,-9.80652 37.79481,-9.80652 25.65677,0 47.28669,10.00664 64.88975,30.01996 17.60308,20.01332 26.40461,44.56298 26.40461,73.64899 0,28.28549 -8.74402,52.70175 -26.23202,73.24874 -17.48802,20.54701 -38.19752,30.8205 -62.12848,30.8205 -3.9118,0 -9.66443,-0.46697 -17.25791,-1.40094 v -82.45484 c 5.29242,4.93662 10.58485,7.40492 15.87729,7.40492 6.67304,0 12.36816,-2.86857 17.08531,-8.60573 4.83222,-5.73715 7.24833,-12.54169 7.24833,-20.41357 0,-7.8719 -2.47364,-14.54301 -7.4209,-20.01332 -4.94727,-5.60374 -10.8725,-8.40559 -17.77565,-8.40559 -16.56759,0 -24.85139,13.27551 -24.85139,39.8265 z"
       fill="#02C074"
	   stroke-width="0"
	   stroke="#02C074" />

	<rect
       fill="#02C074"
	   stroke-width="0"
	   stroke="#02C074"
       width="66.002022"
       height="89.362556"
       x="372.93704"
       y="-100.02569"
       transform="matrix(0.64333378,0.76558582,0,1,0,0)" />
</svg>
